<mxfile host="app.diagrams.net" modified="2023-08-25T13:40:43.757Z" agent="Mozilla/5.0 (X11; Linux x86_64; rv:104.0) Gecko/20100101 Firefox/104.0" etag="fEEg7XlpJeVz-uzYCqkh" version="21.6.8" type="github">
  <diagram name="Página-1" id="PVrPc0Pne0recY-PcbNf">
    <mxGraphModel dx="1434" dy="718" grid="1" gridSize="10" guides="1" tooltips="1" connect="1" arrows="1" fold="1" page="1" pageScale="1" pageWidth="827" pageHeight="1169" math="0" shadow="0">
      <root>
        <mxCell id="0" />
        <mxCell id="1" parent="0" />
        <mxCell id="cX8DoEyE-BEHBlRMm__U-1" value="cliente" style="swimlane;whiteSpace=wrap;html=1;" parent="1" vertex="1">
          <mxGeometry x="70" y="160" width="160" height="150" as="geometry" />
        </mxCell>
        <mxCell id="cX8DoEyE-BEHBlRMm__U-2" value="RG" style="text;html=1;align=center;verticalAlign=middle;resizable=0;points=[];autosize=1;strokeColor=none;fillColor=none;" parent="cX8DoEyE-BEHBlRMm__U-1" vertex="1">
          <mxGeometry x="15" y="30" width="40" height="30" as="geometry" />
        </mxCell>
        <mxCell id="cX8DoEyE-BEHBlRMm__U-3" value="nome" style="text;html=1;align=center;verticalAlign=middle;resizable=0;points=[];autosize=1;strokeColor=none;fillColor=none;" parent="cX8DoEyE-BEHBlRMm__U-1" vertex="1">
          <mxGeometry x="10" y="60" width="50" height="30" as="geometry" />
        </mxCell>
        <mxCell id="cX8DoEyE-BEHBlRMm__U-4" value="número" style="text;html=1;align=center;verticalAlign=middle;resizable=0;points=[];autosize=1;strokeColor=none;fillColor=none;" parent="cX8DoEyE-BEHBlRMm__U-1" vertex="1">
          <mxGeometry x="5" y="90" width="60" height="30" as="geometry" />
        </mxCell>
        <mxCell id="cX8DoEyE-BEHBlRMm__U-5" value="endereço" style="text;html=1;align=center;verticalAlign=middle;resizable=0;points=[];autosize=1;strokeColor=none;fillColor=none;" parent="cX8DoEyE-BEHBlRMm__U-1" vertex="1">
          <mxGeometry x="2" y="117" width="70" height="30" as="geometry" />
        </mxCell>
        <mxCell id="cX8DoEyE-BEHBlRMm__U-7" value="atender" style="shape=rhombus;perimeter=rhombusPerimeter;whiteSpace=wrap;html=1;align=center;" parent="1" vertex="1">
          <mxGeometry x="320" y="190" width="120" height="60" as="geometry" />
        </mxCell>
        <mxCell id="cX8DoEyE-BEHBlRMm__U-8" value="produtos" style="swimlane;whiteSpace=wrap;html=1;" parent="1" vertex="1">
          <mxGeometry x="480" y="400" width="160" height="150" as="geometry" />
        </mxCell>
        <mxCell id="cX8DoEyE-BEHBlRMm__U-9" value="nome" style="text;html=1;align=center;verticalAlign=middle;resizable=0;points=[];autosize=1;strokeColor=none;fillColor=none;" parent="cX8DoEyE-BEHBlRMm__U-8" vertex="1">
          <mxGeometry x="10" y="30" width="50" height="30" as="geometry" />
        </mxCell>
        <mxCell id="cX8DoEyE-BEHBlRMm__U-10" value="tipo" style="text;html=1;align=center;verticalAlign=middle;resizable=0;points=[];autosize=1;strokeColor=none;fillColor=none;" parent="cX8DoEyE-BEHBlRMm__U-8" vertex="1">
          <mxGeometry x="15" y="60" width="40" height="30" as="geometry" />
        </mxCell>
        <mxCell id="cX8DoEyE-BEHBlRMm__U-11" value="preço" style="text;html=1;align=center;verticalAlign=middle;resizable=0;points=[];autosize=1;strokeColor=none;fillColor=none;" parent="cX8DoEyE-BEHBlRMm__U-8" vertex="1">
          <mxGeometry x="10" y="90" width="50" height="30" as="geometry" />
        </mxCell>
        <mxCell id="cX8DoEyE-BEHBlRMm__U-12" value="quantidade" style="text;html=1;align=center;verticalAlign=middle;resizable=0;points=[];autosize=1;strokeColor=none;fillColor=none;" parent="cX8DoEyE-BEHBlRMm__U-8" vertex="1">
          <mxGeometry x="-3" y="117" width="80" height="30" as="geometry" />
        </mxCell>
        <mxCell id="cX8DoEyE-BEHBlRMm__U-13" value="floricultura" style="whiteSpace=wrap;html=1;align=center;" parent="1" vertex="1">
          <mxGeometry x="510" y="170" width="100" height="40" as="geometry" />
        </mxCell>
        <mxCell id="cX8DoEyE-BEHBlRMm__U-15" value="pertencer" style="shape=rhombus;perimeter=rhombusPerimeter;whiteSpace=wrap;html=1;align=center;" parent="1" vertex="1">
          <mxGeometry x="500" y="260" width="120" height="60" as="geometry" />
        </mxCell>
        <mxCell id="cX8DoEyE-BEHBlRMm__U-17" value="" style="endArrow=none;html=1;rounded=0;entryX=0;entryY=0.5;entryDx=0;entryDy=0;" parent="1" target="cX8DoEyE-BEHBlRMm__U-7" edge="1">
          <mxGeometry width="50" height="50" relative="1" as="geometry">
            <mxPoint x="230" y="220" as="sourcePoint" />
            <mxPoint x="440" y="330" as="targetPoint" />
          </mxGeometry>
        </mxCell>
        <mxCell id="cX8DoEyE-BEHBlRMm__U-18" value="" style="endArrow=none;html=1;rounded=0;entryX=0;entryY=0.5;entryDx=0;entryDy=0;exitX=1;exitY=0.5;exitDx=0;exitDy=0;" parent="1" source="cX8DoEyE-BEHBlRMm__U-7" target="cX8DoEyE-BEHBlRMm__U-13" edge="1">
          <mxGeometry width="50" height="50" relative="1" as="geometry">
            <mxPoint x="240" y="230" as="sourcePoint" />
            <mxPoint x="330" y="230" as="targetPoint" />
          </mxGeometry>
        </mxCell>
        <mxCell id="cX8DoEyE-BEHBlRMm__U-19" value="" style="endArrow=none;html=1;rounded=0;entryX=0.5;entryY=1;entryDx=0;entryDy=0;exitX=0.5;exitY=0;exitDx=0;exitDy=0;" parent="1" source="cX8DoEyE-BEHBlRMm__U-15" target="cX8DoEyE-BEHBlRMm__U-13" edge="1">
          <mxGeometry width="50" height="50" relative="1" as="geometry">
            <mxPoint x="450" y="230" as="sourcePoint" />
            <mxPoint x="520" y="200" as="targetPoint" />
          </mxGeometry>
        </mxCell>
        <mxCell id="cX8DoEyE-BEHBlRMm__U-21" value="" style="endArrow=none;html=1;rounded=0;entryX=0.5;entryY=1;entryDx=0;entryDy=0;exitX=0.5;exitY=0;exitDx=0;exitDy=0;" parent="1" edge="1">
          <mxGeometry width="50" height="50" relative="1" as="geometry">
            <mxPoint x="560" y="370" as="sourcePoint" />
            <mxPoint x="560" y="320" as="targetPoint" />
            <Array as="points">
              <mxPoint x="560" y="400" />
              <mxPoint x="560" y="370" />
            </Array>
          </mxGeometry>
        </mxCell>
        <mxCell id="cX8DoEyE-BEHBlRMm__U-22" value="comprar" style="shape=rhombus;perimeter=rhombusPerimeter;whiteSpace=wrap;html=1;align=center;" parent="1" vertex="1">
          <mxGeometry x="100" y="470" width="120" height="60" as="geometry" />
        </mxCell>
        <mxCell id="cX8DoEyE-BEHBlRMm__U-23" value="" style="endArrow=none;html=1;rounded=0;entryX=0.5;entryY=0;entryDx=0;entryDy=0;exitX=0.5;exitY=1;exitDx=0;exitDy=0;" parent="1" source="cX8DoEyE-BEHBlRMm__U-1" target="cX8DoEyE-BEHBlRMm__U-22" edge="1">
          <mxGeometry width="50" height="50" relative="1" as="geometry">
            <mxPoint x="115" y="380" as="sourcePoint" />
            <mxPoint x="205" y="380" as="targetPoint" />
          </mxGeometry>
        </mxCell>
        <mxCell id="cX8DoEyE-BEHBlRMm__U-24" value="" style="endArrow=none;html=1;rounded=0;entryX=1;entryY=0.5;entryDx=0;entryDy=0;exitX=0;exitY=0.5;exitDx=0;exitDy=0;" parent="1" source="cX8DoEyE-BEHBlRMm__U-8" target="cX8DoEyE-BEHBlRMm__U-22" edge="1">
          <mxGeometry width="50" height="50" relative="1" as="geometry">
            <mxPoint x="160" y="320" as="sourcePoint" />
            <mxPoint x="170" y="480" as="targetPoint" />
          </mxGeometry>
        </mxCell>
        <mxCell id="cX8DoEyE-BEHBlRMm__U-25" value="data" style="whiteSpace=wrap;html=1;align=center;" parent="1" vertex="1">
          <mxGeometry x="180" y="585" width="100" height="40" as="geometry" />
        </mxCell>
        <mxCell id="cX8DoEyE-BEHBlRMm__U-26" value="" style="endArrow=none;html=1;rounded=0;entryX=0.5;entryY=1;entryDx=0;entryDy=0;exitX=0.5;exitY=0;exitDx=0;exitDy=0;" parent="1" source="cX8DoEyE-BEHBlRMm__U-25" target="cX8DoEyE-BEHBlRMm__U-22" edge="1">
          <mxGeometry width="50" height="50" relative="1" as="geometry">
            <mxPoint x="490" y="485" as="sourcePoint" />
            <mxPoint x="230" y="510" as="targetPoint" />
          </mxGeometry>
        </mxCell>
      </root>
    </mxGraphModel>
  </diagram>
</mxfile>
